<?xml version="1.0" encoding="iso-8859-1"?>
<!-- Uploaded to: SVG Repo, www.svgrepo.com, Generator: SVG Repo Mixer Tools -->
<svg fill="#FFDB6E" height="800px" width="800px" version="1.1" id="Layer_1" xmlns="http://www.w3.org/2000/svg" xmlns:xlink="http://www.w3.org/1999/xlink" 
	 viewBox="0 0 512 512" xml:space="preserve">
<g>
	<g>
		<g>
			<path d="M275.582,115.874v107.789c0,4.466,3.62,8.084,8.084,8.084s8.084-3.618,8.084-8.084V115.874
				c0-4.466-3.62-8.084-8.084-8.084S275.582,111.408,275.582,115.874z"/>
			<path d="M61.979,315.464c4.465,0,8.084-3.619,8.084-8.084V83.537c0-16.554,11.545-30.453,27.003-34.093
				c-0.033,0.582-0.056,1.166-0.056,1.756v221.327c0,4.466,3.62,8.084,8.084,8.084c4.465,0,8.084-3.619,8.084-8.084V51.2
				c0-7.43,6.044-13.474,13.474-13.474h56.69c-0.059,0.891-0.1,1.788-0.1,2.695c0,22.289,18.132,40.421,40.42,40.42h64.674
				c22.289,0,40.421-18.132,40.421-40.421c0-0.906-0.041-1.803-0.1-2.695h56.69c7.43,0,13.474,6.044,13.474,13.474v32.337
				c0,4.466,3.62,8.084,8.084,8.084c4.465,0,8.084-3.619,8.084-8.084V51.199c0-0.595-0.023-1.184-0.057-1.77
				c12.695,2.955,22.9,12.785,26.043,25.912c0.889,3.71,4.202,6.204,7.856,6.204c0.623,0,1.257-0.072,1.89-0.224
				c4.342-1.04,7.018-5.403,5.979-9.744c-5.429-22.677-25.258-38.629-48.479-39.212c-5.441-6.596-13.674-10.807-22.872-10.807
				h-61.276C317.283,8.749,303.815,0,288.337,0h-64.674c-15.479,0-28.946,8.749-35.734,21.558h-61.276
				c-9.2,0-17.435,4.214-22.876,10.812c-27.623,0.704-49.882,23.377-49.882,51.167V307.38
				C53.895,311.846,57.514,315.464,61.979,315.464z M223.663,16.168h64.674c13.373,0,24.253,10.88,24.253,24.253
				c0,13.372-10.879,24.253-24.253,24.253h-64.674c-13.373,0-24.253-10.88-24.253-24.253
				C199.41,27.049,210.29,16.168,223.663,16.168z"/>
			<path d="M218.095,169.768v53.895c0,4.466,3.62,8.084,8.084,8.084c4.465,0,8.084-3.618,8.084-8.084v-53.895
				c0-4.466-3.62-8.084-8.084-8.084C221.714,161.684,218.095,165.303,218.095,169.768z"/>
			<path d="M333.069,169.768v32.337c0,4.466,3.62,8.084,8.084,8.084s8.084-3.618,8.084-8.084v-32.337
				c0-4.466-3.62-8.084-8.084-8.084S333.069,165.303,333.069,169.768z"/>
			<path d="M234.263,428.463V299.116c0-4.466-3.62-8.084-8.084-8.084c-4.465,0-8.084,3.619-8.084,8.084v129.347
				c0,4.466,3.62,8.084,8.084,8.084C230.643,436.547,234.263,432.929,234.263,428.463z"/>
			<path d="M291.75,428.463V299.116c0-4.466-3.62-8.084-8.084-8.084s-8.084,3.619-8.084,8.084v129.347
				c0,4.466,3.62,8.084,8.084,8.084S291.75,432.929,291.75,428.463z"/>
			<path d="M349.238,428.463V320.674c0-4.466-3.62-8.084-8.084-8.084s-8.084,3.618-8.084,8.084v107.789
				c0,4.466,3.62,8.084,8.084,8.084S349.238,432.929,349.238,428.463z"/>
			<path d="M176.775,428.463V320.674c0-4.466-3.62-8.084-8.084-8.084c-4.465,0-8.084,3.618-8.084,8.084v107.789
				c0,4.466,3.62,8.084,8.084,8.084C173.155,436.547,176.775,432.929,176.775,428.463z"/>
			<path d="M450.021,91.621c-34.176,0-61.979,27.803-61.979,61.979c0,14.18,4.798,27.252,12.838,37.708l-42.478,42.479
				c-3.344-1.311-6.978-2.038-10.781-2.038c-13.542,0-24.983,9.132-28.512,21.558H192.891
				c-3.529-12.426-14.971-21.558-28.512-21.558c-16.345,0-29.642,13.298-29.642,29.642c0,3.802,0.728,7.436,2.038,10.78
				l-60.356,60.357c-4.276-2.397-9.2-3.769-14.441-3.769c-16.345,0-29.642,13.298-29.642,29.642c0,5.241,1.373,10.164,3.769,14.441
				L2.368,406.579c-3.157,3.157-3.157,8.275,0,11.433c1.578,1.578,3.646,2.367,5.716,2.367s4.138-0.789,5.716-2.368l33.738-33.738
				c4.276,2.397,9.2,3.769,14.441,3.769c16.345,0,29.642-13.298,29.642-29.642c0-5.24-1.372-10.163-3.768-14.441l58.815-58.815
				c4.944,3.696,11.076,5.887,17.711,5.887c13.542,0,24.983-9.132,28.512-21.558H319.11c3.529,12.426,14.971,21.558,28.512,21.558
				c16.345,0,29.642-13.298,29.642-29.642c0-6.634-2.191-12.767-5.887-17.711l40.937-40.938
				c8.433,6.487,18.573,10.848,29.623,12.294V460.8c0,19.317-15.716,35.032-35.032,35.032H105.095
				c-19.316,0-35.032-15.715-35.032-35.032v-53.895c0-4.466-3.62-8.084-8.084-8.084c-4.465,0-8.084,3.618-8.084,8.084V460.8
				c0,28.231,22.969,51.2,51.2,51.2h301.811c28.231,0,51.2-22.969,51.2-51.2V215.035c30.366-3.975,53.895-30,53.895-61.435
				C512,119.424,484.197,91.621,450.021,91.621z M61.979,371.874c-7.429,0-13.474-6.044-13.474-13.474s6.044-13.474,13.474-13.474
				s13.474,6.044,13.474,13.474S69.408,371.874,61.979,371.874z M164.379,274.863c-7.43,0-13.474-6.044-13.474-13.474
				c0-7.43,6.044-13.474,13.474-13.474s13.474,6.044,13.474,13.474C177.853,268.819,171.809,274.863,164.379,274.863z
				 M347.621,274.863c-7.43,0-13.474-6.044-13.474-13.474c0-7.43,6.044-13.474,13.474-13.474s13.474,6.044,13.474,13.474
				C361.095,268.819,355.051,274.863,347.621,274.863z M450.021,199.411c-25.26,0-45.811-20.55-45.811-45.81
				c0-25.26,20.55-45.811,45.811-45.811c25.26,0,45.81,20.55,45.81,45.811C495.831,178.86,475.281,199.411,450.021,199.411z"/>
			<path d="M450.021,123.958c-16.345,0-29.642,13.298-29.642,29.642c0,16.344,13.297,29.642,29.642,29.642
				s29.642-13.298,29.642-29.642C479.663,137.256,466.366,123.958,450.021,123.958z M450.021,167.074
				c-7.43,0-13.474-6.044-13.474-13.474c0-7.43,6.044-13.474,13.474-13.474s13.474,6.044,13.474,13.474
				C463.495,161.03,457.451,167.074,450.021,167.074z"/>
			<path d="M105.095,350.316c-4.465,0-8.084,3.618-8.084,8.084v80.842c0,16.344,13.297,29.642,29.642,29.642h258.695
				c16.345,0,29.642-13.298,29.642-29.642V235.52c0-4.466-3.62-8.084-8.084-8.084c-4.465,0-8.084,3.618-8.084,8.084v203.722
				c0,7.43-6.044,13.474-13.474,13.474H126.653c-7.43,0-13.474-6.044-13.474-13.474V358.4
				C113.179,353.934,109.559,350.316,105.095,350.316z"/>
		</g>
	</g>
</g>
</svg>